<svg width="20" height="20" viewBox="0 0 20 20" fill="none" xmlns="http://www.w3.org/2000/svg">
<path d="M11.2499 2.5H8.74988C7.83988 4.9275 6.68655 5.5925 4.12988 5.1675L2.87988 7.3325C4.52655 9.33417 4.52655 10.6658 2.87988 12.6675L4.12988 14.8325C6.68655 14.4075 7.83988 15.0725 8.74988 17.5H11.2499C12.1599 15.0725 13.3132 14.4075 15.8699 14.8333L17.1199 12.6675C15.4732 10.6658 15.4732 9.33417 17.1199 7.3325L15.8699 5.1675C13.3132 5.5925 12.1599 4.9275 11.2499 2.5Z" stroke="#FCFCFC" stroke-width="1.66667"/>
<path d="M10.0001 12.0833C11.1507 12.0833 12.0834 11.1506 12.0834 9.99996C12.0834 8.84937 11.1507 7.91663 10.0001 7.91663C8.84949 7.91663 7.91675 8.84937 7.91675 9.99996C7.91675 11.1506 8.84949 12.0833 10.0001 12.0833Z" fill="#FCFCFC"/>
</svg>
