<svg width="16" height="16" viewBox="0 0 16 16" fill="none" xmlns="http://www.w3.org/2000/svg">
<path d="M8.00008 2.66663H5.33341C3.86065 2.66663 2.66675 3.86053 2.66675 5.33329V10.6666C2.66675 12.1394 3.86065 13.3333 5.33341 13.3333H10.6667C12.1395 13.3333 13.3334 12.1394 13.3334 10.6666V7.99996" stroke="#9E9E9E" stroke-width="1.33333"/>
<path d="M2.66675 10.2222L5.33342 8L10.9805 13.3333" stroke="#9E9E9E" stroke-width="1.33333"/>
<path d="M9.33341 7.83333C9.97775 7.83333 10.5001 7.311 10.5001 6.66667C10.5001 6.02233 9.97775 5.5 9.33341 5.5C8.68908 5.5 8.16675 6.02233 8.16675 6.66667C8.16675 7.311 8.68908 7.83333 9.33341 7.83333Z" fill="#9E9E9E"/>
<path d="M14.0237 3.66655H12.3334M12.3334 3.66655H10.6431M12.3334 3.66655V1.9762M12.3334 3.66655V5.3569" stroke="#9E9E9E" stroke-width="1.33333" stroke-linecap="square"/>
</svg>
